<?xml version="1.0" encoding="UTF-8"?>
<svg width="300" height="600" viewBox="0 0 300 600" fill="none" xmlns="http://www.w3.org/2000/svg">
  <!-- Phone frame -->
  <rect x="25" y="10" width="250" height="580" rx="30" fill="#1F2937" />
  <rect x="35" y="20" width="230" height="560" rx="20" fill="#FFFFFF" />
  
  <!-- Phone buttons -->
  <rect x="120" y="40" width="60" height="10" rx="5" fill="#1F2937" />
  <circle cx="150" cy="570" r="20" stroke="#1F2937" stroke-width="2" fill="none" />
  
  <!-- App header -->
  <rect x="35" y="70" width="230" height="60" fill="#5B68DF" />
  <text x="50" y="105" font-family="Arial" font-weight="bold" font-size="18" fill="white">Job Portal</text>
  
  <!-- Search bar -->
  <rect x="50" y="150" width="200" height="40" rx="20" fill="#F3F4F6" />
  <text x="75" y="175" font-family="Arial" font-size="14" fill="#9CA3AF">Search jobs...</text>
  <circle cx="230" cy="170" r="12" fill="#5B68DF" />
  <path d="M235 175 L230 170 L235 165" stroke="white" stroke-width="2" fill="none" />
  
  <!-- Job listings -->
  <rect x="50" y="210" width="200" height="80" rx="10" fill="white" stroke="#E5E7EB" stroke-width="1" />
  <rect x="60" y="225" width="40" height="40" rx="5" fill="#E0F2FE" />
  <text x="110" y="235" font-family="Arial" font-weight="bold" font-size="14" fill="#1F2937">Software Developer</text>
  <text x="110" y="255" font-family="Arial" font-size="12" fill="#4B5563">TechCorp Inc.</text>
  <rect x="110" y="265" width="60" height="20" rx="10" fill="#5B68DF" />
  <text x="120" y="280" font-family="Arial" font-size="10" fill="white">Full Time</text>
  
  <rect x="50" y="300" width="200" height="80" rx="10" fill="white" stroke="#E5E7EB" stroke-width="1" />
  <rect x="60" y="315" width="40" height="40" rx="5" fill="#FEF9C3" />
  <text x="110" y="325" font-family="Arial" font-weight="bold" font-size="14" fill="#1F2937">Marketing Manager</text>
  <text x="110" y="345" font-family="Arial" font-size="12" fill="#4B5563">Brand Solutions</text>
  <rect x="110" y="355" width="80" height="20" rx="10" fill="#22C55E" />
  <text x="120" y="370" font-family="Arial" font-size="10" fill="white">Remote Work</text>
  
  <rect x="50" y="390" width="200" height="80" rx="10" fill="white" stroke="#E5E7EB" stroke-width="1" />
  <rect x="60" y="405" width="40" height="40" rx="5" fill="#FEE2E2" />
  <text x="110" y="415" font-family="Arial" font-weight="bold" font-size="14" fill="#1F2937">UX Designer</text>
  <text x="110" y="435" font-family="Arial" font-size="12" fill="#4B5563">Creative Solutions</text>
  <rect x="110" y="445" width="60" height="20" rx="10" fill="#8C96E9" />
  <text x="120" y="460" font-family="Arial" font-size="10" fill="white">Contract</text>
  
  <!-- Bottom navigation -->
  <rect x="35" y="530" width="230" height="50" fill="#F9FAFB" />
  <circle cx="70" cy="555" r="15" fill="#5B68DF" />
  <text x="65" y="560" font-family="Arial" font-size="16" fill="white">H</text>
  <circle cx="130" cy="555" r="15" fill="#F9FAFB" stroke="#9CA3AF" stroke-width="1" />
  <text x="125" y="560" font-family="Arial" font-size="16" fill="#9CA3AF">S</text>
  <circle cx="190" cy="555" r="15" fill="#F9FAFB" stroke="#9CA3AF" stroke-width="1" />
  <text x="185" y="560" font-family="Arial" font-size="16" fill="#9CA3AF">P</text>
</svg> 